<svg xmlns="http://www.w3.org/2000/svg" viewBox="0 0 915 1018" fill="none" id="backsplash2">
    <g opacity="0.4" filter="url(#filter0_bf_265_1136)">
        <path fill-rule="evenodd" clip-rule="evenodd" d="M1049.9 875.494C732.342 928.738 436.87 915.39 267.815 824.901C131.862 752.13 102.433 642.727 164.366 523.106C164.366 523.106 -179.567 -88.8828 890.359 311.138C1960.28 711.159 1281.97 -57.1351 1281.97 -57.1351C1607.42 -114.518 1912.19 -102.604 2084.95 -10.1339C2287.24 98.1464 2253.69 287.533 2034.23 471.004L1542.07 673.249L1049.9 875.494Z" fill="url(#paint0_linear_265_1136)"/>
        <path fill-rule="evenodd" clip-rule="evenodd" d="M1049.9 875.494C732.342 928.738 436.87 915.39 267.815 824.901C131.862 752.13 102.433 642.727 164.366 523.106C164.366 523.106 -179.567 -88.8828 890.359 311.138C1960.28 711.159 1281.97 -57.1351 1281.97 -57.1351C1607.42 -114.518 1912.19 -102.604 2084.95 -10.1339C2287.24 98.1464 2253.69 287.533 2034.23 471.004L1542.07 673.249L1049.9 875.494Z" fill="url(#paint1_radial_265_1136)"/>
        <path d="M664.681 133.488C404.288 253.148 231.174 394.072 164.366 523.106C164.366 523.106 -179.567 -88.8828 890.359 311.138C1960.28 711.159 1281.97 -57.1351 1281.97 -57.1351C1075.03 -20.6474 859.726 43.8586 664.681 133.488Z" fill="url(#paint2_linear_265_1136)"/>
        <path d="M664.681 133.488C404.288 253.148 231.174 394.072 164.366 523.106C164.366 523.106 -179.567 -88.8828 890.359 311.138C1960.28 711.159 1281.97 -57.1351 1281.97 -57.1351C1075.03 -20.6474 859.726 43.8586 664.681 133.488Z" fill="url(#paint3_radial_265_1136)"/>
        <path d="M1049.9 875.494C1263.2 839.732 1486.47 773.928 1688.08 681.278C1830.68 615.749 1947.11 543.843 2034.23 471.004L1542.07 673.249L1049.9 875.494Z" fill="url(#paint4_linear_265_1136)"/>
        <path d="M1049.9 875.494C1263.2 839.732 1486.47 773.928 1688.08 681.278C1830.68 615.749 1947.11 543.843 2034.23 471.004L1542.07 673.249L1049.9 875.494Z" fill="url(#paint5_radial_265_1136)"/>
    </g>
    <defs>
        <filter id="filter0_bf_265_1136" x="0.522728" y="-203.187" width="2329.97" height="1221.14" filterUnits="userSpaceOnUse" color-interpolation-filters="sRGB">
            <feFlood flood-opacity="0" result="BackgroundImageFix"/>
            <feGaussianBlur in="BackgroundImage" stdDeviation="55.5878"/>
            <feComposite in2="SourceAlpha" operator="in" result="effect1_backgroundBlur_265_1136"/>
            <feBlend mode="normal" in="SourceGraphic" in2="effect1_backgroundBlur_265_1136" result="shape"/>
            <feGaussianBlur stdDeviation="55.5878" result="effect2_foregroundBlur_265_1136"/>
        </filter>
        <linearGradient id="paint0_linear_265_1136" x1="2084.95" y1="-10.1335" x2="1332.85" y2="1394.97" gradientUnits="userSpaceOnUse">
            <stop stop-color="white"/>
            <stop offset="1" stop-color="white" stop-opacity="0"/>
        </linearGradient>
        <radialGradient id="paint1_radial_265_1136" cx="0" cy="0" r="1" gradientUnits="userSpaceOnUse" gradientTransform="translate(1176.38 407.383) rotate(155.32) scale(1079.31 499.269)">
            <stop offset="0.0619708" stop-color="#E9E9E9"/>
            <stop offset="1" stop-color="#C729FF"/>
        </radialGradient>
        <linearGradient id="paint2_linear_265_1136" x1="2084.95" y1="-10.1335" x2="1332.85" y2="1394.97" gradientUnits="userSpaceOnUse">
            <stop stop-color="white"/>
            <stop offset="1" stop-color="white" stop-opacity="0"/>
        </linearGradient>
        <radialGradient id="paint3_radial_265_1136" cx="0" cy="0" r="1" gradientUnits="userSpaceOnUse" gradientTransform="translate(1176.38 407.383) rotate(155.32) scale(1079.31 499.269)">
            <stop offset="0.0619708" stop-color="#E9E9E9"/>
            <stop offset="1" stop-color="#C729FF"/>
        </radialGradient>
        <linearGradient id="paint4_linear_265_1136" x1="2084.95" y1="-10.1335" x2="1332.85" y2="1394.97" gradientUnits="userSpaceOnUse">
            <stop stop-color="white"/>
            <stop offset="1" stop-color="white" stop-opacity="0"/>
        </linearGradient>
        <radialGradient id="paint5_radial_265_1136" cx="0" cy="0" r="1" gradientUnits="userSpaceOnUse" gradientTransform="translate(1176.38 407.383) rotate(155.32) scale(1079.31 499.269)">
            <stop offset="0.0619708" stop-color="#E9E9E9"/>
            <stop offset="1" stop-color="#C729FF"/>
        </radialGradient>
    </defs>
</svg>