<svg xmlns="http://www.w3.org/2000/svg" width="682.925" height="583.076" viewBox="0 0 682.925 583.076">
  <g id="back-dotted-pattern" transform="translate(150.18 -106.569) rotate(17)" opacity="0.2">
    <path id="Path_217555" data-name="Path 217555" d="M294.856,243.511c-.576,22.268,10.76,32.559,26.322,27.506,29.781-9.917,44.191-34.055,56.68-59.5,1.536-2.994,1.153-7.11.96-10.666-.768-9.356-4.8-15.906-15.562-16.468-4.419-.187-9.223-.747-13.066-2.619-13.064-6.55-18.06-6.924-27.091,2.806C306.576,202.157,299.083,224.051,294.856,243.511Z" transform="translate(150.148 90.152)" fill="#cce7ff"/>
    <path id="Path_217556" data-name="Path 217556" d="M90.4,220.5c-.192-4.3,0-8.794-.576-13.1-2.306-16.467-9.991-20.772-26.9-17.778-12.3,2.246-15.371,12.912-22.48,19.648C25.46,223.685,18.736,242.21,21.041,262.793,23.347,283,37.565,289.74,56.2,280.384,81.179,267.846,90.593,246.889,90.4,220.5Z" transform="translate(10.49 96.121)" fill="#cce7ff"/>
    <path id="Path_217557" data-name="Path 217557" d="M289.314,159.719c-3.073-8.42-4.611-17.589-9.413-24.888-9.223-14.407-33.048-17.4-42.462-4.3a153,153,0,0,0-21.712,44.535c-4.226,13.472,6.34,28.442,19.6,34.429,12.681,5.614,26.323,2.059,36.889-10.1C282.013,187.974,287.392,175.064,289.314,159.719Z" transform="translate(109.38 62.224)" fill="#cce7ff"/>
    <path id="Path_217558" data-name="Path 217558" d="M121.078,169.144c0,21.146,22.671,35.366,43.037,26.011A68.891,68.891,0,0,0,201.2,154.737c5.572-15.532-3.651-29.565-19.6-34.618C150.282,110.763,122.614,140.889,121.078,169.144Z" transform="translate(61.66 60.286)" fill="#cce7ff"/>
    <path id="Path_217559" data-name="Path 217559" d="M341.039,308.765c-.192-18.9-12.1-31.062-26.515-25.636a105.193,105.193,0,0,0-27.091,14.783c-13.832,10.292-17.1,25.075-13.832,40.979,2.5,11.789,13.832,18.712,25.937,17.029C322.017,352.739,341.23,331.033,341.039,308.765Z" transform="translate(138.739 143.525)" fill="#cce7ff"/>
    <path id="Path_217560" data-name="Path 217560" d="M341.492,79.63l2.883-1.684c-5.381-8.608-9.415-18.712-16.523-25.636-9.415-9.169-33.817-5.988-37.851,3.93a181.18,181.18,0,0,0-10.568,32.746c-3.843,17.4,7.878,29,26.13,27.507C324.777,114.809,341.108,98.155,341.492,79.63Z" transform="translate(141.933 23.871)" fill="#cce7ff"/>
    <path id="Path_217561" data-name="Path 217561" d="M328.579,35.176c.961,5.614,1.345,10.479,2.69,14.783,6.725,21.706,26.706,27.133,42.655,10.853a62.774,62.774,0,0,0,14.409-24.887C393.519,18.9,384.3,6.734,364.315.746,353.364-2.435,338.379,5.424,333,18.148,330.5,23.762,329.732,30.124,328.579,35.176Z" transform="translate(167.332 0.02)" fill="#cce7ff"/>
    <path id="Path_217562" data-name="Path 217562" d="M248.847,310.657c-3.651-6.176-6.34-16.093-11.529-17.59-8.262-2.431-20.366-2.619-27.283,1.871-17.1,11.04-22.864,29-21.134,48.652.768,8.233,3.843,16.84,13.642,19.46,9.99,2.807,18.445-.561,25.362-7.672C239.624,343.216,245.58,328.62,248.847,310.657Z" transform="translate(96.05 148.382)" fill="#cce7ff"/>
    <path id="Path_217563" data-name="Path 217563" d="M166.959,363.062c-.96-7.672-1.73-18.15-12.3-21.893-10.953-3.743-22.1-2.807-30.934,5.987-11.144,11.227-17.1,24.513-16.908,40.045.193,14.782,10.183,22.455,25.17,20.022C152.934,403.854,166.959,387.013,166.959,363.062Z" transform="translate(54.398 172.687)" fill="#cce7ff"/>
    <path id="Path_217564" data-name="Path 217564" d="M421.735,139.2c.192-13.1-7.11-23.765-15.372-20.583-14.6,5.613-29.2,12.35-41.885,21.332-9.606,6.923-8.838,18.712-1.921,28.442,8.262,11.789,19.406,16.093,30.549,11.789C408.093,174.563,421.542,155.288,421.735,139.2Z" transform="translate(181.966 60.116)" fill="#cce7ff"/>
    <path id="Path_217565" data-name="Path 217565" d="M236.924,258.427c0,16.279,9.415,28.255,22.672,28.255,14.794.187,31.317-17.027,31.509-32.746.192-14.409-15.179-31.811-28.051-31.624C248.452,222.5,236.924,238.218,236.924,258.427Z" transform="translate(120.656 113.214)" fill="#cce7ff"/>
    <path id="Path_217566" data-name="Path 217566" d="M232.685,64.866c-17.87-.561-33.623,13.286-34.2,30.314-.577,15.531,9.222,28.63,22.1,29.377,15.562.936,34.392-20.4,34.968-39.108C255.74,71.976,248.439,65.24,232.685,64.866Z" transform="translate(101.068 33.025)" fill="#cce7ff"/>
    <path id="Path_217567" data-name="Path 217567" d="M263.89,381.745c0-9.73-8.453-23.391-16.33-25.449-11.721-2.807-18.638,4.492-23.44,12.912S214.9,386.8,212.783,396.153c-3.266,15.345,9.415,25.075,24.785,20.585C251.018,412.808,263.89,395.591,263.89,381.745Z" transform="translate(108.099 181.136)" fill="#cce7ff"/>
    <path id="Path_217568" data-name="Path 217568" d="M22.8,410.212a1.771,1.771,0,0,1,.961.187c0,2.993-.961,6.362.192,8.607,3.074,5.613,6.34,13.847,11.336,15.343,5.187,1.684,14.986-1.5,18.253-5.8,7.493-9.73,12.873-20.958,17.484-32.372,1.537-3.929-.769-11.415-4.035-14.409-12.489-11.413-34.968-5.426-40.54,10.479C24.338,397.862,23.953,404.223,22.8,410.212Z" transform="translate(11.611 191.409)" fill="#cce7ff"/>
    <path id="Path_217569" data-name="Path 217569" d="M49.4,317.508c.384-22.455-7.109-27.133-21.9-20.958a20.337,20.337,0,0,1-3.074,1.123C10.394,300.1,3.477,309.274.6,321.811c-3.074,13.1,6.34,20.022,14.794,26.946,6.533,5.426,14.41,4.49,18.637-2.059C41.135,335.659,46.323,323.5,49.4,317.508Z" transform="translate(0 149.751)" fill="#cce7ff"/>
    <path id="Path_217570" data-name="Path 217570" d="M207.009,36.186c0,14.034,7.493,25.074,17.292,25.262,14.026.374,31.317-17.4,31.125-31.624-.192-10.1-12.488-19.461-25.362-19.274C217,10.737,207.009,21.965,207.009,36.186Z" transform="translate(105.421 5.371)" fill="#cce7ff"/>
    <path id="Path_217571" data-name="Path 217571" d="M358.075,137.873c.192-11.6-6.34-19.086-16.523-19.086-12.489,0-28.436,16.092-28.628,29-.193,10.1,8.453,18.712,18.828,19.086C344.433,167.064,357.883,152.28,358.075,137.873Z" transform="translate(159.358 60.493)" fill="#cce7ff"/>
    <path id="Path_217572" data-name="Path 217572" d="M177.922,65.361c-3.459-5.052-5.572-11.789-10.183-14.221-4.227-2.058-13.257-1.5-16.332,1.5-8.07,8.42-17.676,17.964-14.6,30.875,1.345,5.988,6.917,12.911,12.489,15.718,7.492,3.555,14.6-1.684,18.251-8.608C171.582,83.138,174.271,74.9,177.922,65.361Z" transform="translate(69.37 25.42)" fill="#cce7ff"/>
    <path id="Path_217573" data-name="Path 217573" d="M87.927,350.655c13.449.187,18.445-6.736,18.637-26.011,0-9.356-8.646-17.4-19.021-17.776-11.144-.374-21.135,9.917-21.327,22.08C65.831,343.171,73.132,350.281,87.927,350.655Z" transform="translate(33.714 156.271)" fill="#cce7ff"/>
    <path id="Path_217574" data-name="Path 217574" d="M107.072,225.4c4.8,6.549,7.3,13.472,11.911,15.156,4.8,1.684,11.721-1.31,17.293-2.993,2.3-.561,3.843-3.369,5.956-4.866,13.064-9.917,11.336-28.442-3.651-35.366-3.651-1.684-11.336-1.871-13.064.374C118.6,205.755,113.6,215.3,107.072,225.4Z" transform="translate(54.527 99.838)" fill="#cce7ff"/>
    <path id="Path_217575" data-name="Path 217575" d="M371.3,68.447c-10.568-.187-20.366,11.6-20.943,25.261-.383,9.543,6.532,16.654,16.332,16.654,11.528,0,23.247-12.35,23.44-24.887C390.322,75.37,382.828,68.634,371.3,68.447Z" transform="translate(178.416 34.856)" fill="#cce7ff"/>
    <path id="Path_217576" data-name="Path 217576" d="M391.446,268.435c.192-9.169-8.647-18.525-17.676-19.086-9.8-.561-14.6,5.613-14.987,14.035a62.823,62.823,0,0,0,2.689,22.268c1.538,4.49,6.725,10.853,10.568,11.039,4.8.187,11.721-4.116,14.219-8.42C389.717,282.283,389.908,274.424,391.446,268.435Z" transform="translate(182.666 126.965)" fill="#cce7ff"/>
    <path id="Path_217577" data-name="Path 217577" d="M180.4,228.717c.193,9.732,5.957,16.093,14.6,15.719,9.031-.374,18.445-11.415,18.638-21.519,0-8.982-7.493-16.467-16.14-16.093C187.512,207.2,180.211,216.555,180.4,228.717Z" transform="translate(91.87 105.32)" fill="#cce7ff"/>
    <path id="Path_217578" data-name="Path 217578" d="M146.811,283.432c-8.07,0-13.642,5.8-13.642,13.846,0,9.73,9.223,19.275,18.636,19.649,8.455.187,16.908-8.235,16.717-17.029C168.522,292.226,156.994,283.619,146.811,283.432Z" transform="translate(67.818 144.341)" fill="#cce7ff"/>
    <path id="Path_217579" data-name="Path 217579" d="M160.812,424.938c.577-7.859-4.8-13.473-13.449-14.033-9.222-.561-18.445,7.859-19.021,17.589-.383,8.046,3.266,13.286,11.913,14.22C149.093,443.463,160.044,433.92,160.812,424.938Z" transform="translate(65.346 209.244)" fill="#cce7ff"/>
    <path id="Path_217580" data-name="Path 217580" d="M87.347,276.383c-.192,4.117,1.921,9.917,10.567,10.1,9.222.374,13.449-5.24,13.641-13.473.193-7.859-2.881-14.595-11.912-15.343C88.308,256.736,88.308,265.343,87.347,276.383Z" transform="translate(44.476 131.186)" fill="#cce7ff"/>
    <path id="Path_217581" data-name="Path 217581" d="M297.732,181.727c-.768-7.11-3.843-13.473-12.489-13.1-9.606.374-11.143,8.233-11.528,15.719-.192,6.923,2.883,11.976,10.759,12.35C291.968,196.885,297.923,190.334,297.732,181.727Z" transform="translate(139.388 85.868)" fill="#cce7ff"/>
    <path id="Path_217582" data-name="Path 217582" d="M185.631,391.266c5.572-6.737,11.336-10.479,10.953-14.035-.193-3.741-5.381-9.356-9.415-10.479-6.34-1.684-12.3,2.62-11.721,9.543C175.833,380.413,180.637,384.156,185.631,391.266Z" transform="translate(89.329 186.586)" fill="#cce7ff"/>
    <path id="Path_217583" data-name="Path 217583" d="M292.347,27.189c1.536,0,3.074-.187,4.611-.187,2.5-3.742,7.685-8.046,6.917-11.04-.961-4.117-5.764-8.795-9.991-10.1-2.113-.748-9.415,5.614-9.222,8.42C285.046,18.769,289.658,22.886,292.347,27.189Z" transform="translate(144.965 2.952)" fill="#cce7ff"/>
    <path id="Path_217584" data-name="Path 217584" d="M294.856,243.574c4.227-19.46,11.719-41.354,28.243-59.131,9.031-9.73,14.027-9.356,27.091-2.806,3.843,1.87,8.647,2.431,13.066,2.619,10.76.749,14.794,7.3,15.562,16.468.385,3.556.576,7.672-.96,10.666-12.489,25.635-26.9,49.587-56.68,59.5C305.616,276.133,294.28,265.655,294.856,243.574Z" transform="translate(150.148 90.088)" fill="#cce7ff"/>
    <path id="Path_217585" data-name="Path 217585" d="M90.464,220.451c.192,26.383-9.222,47.341-34.392,60.066-18.637,9.356-32.855,2.62-35.16-17.589-2.306-20.583,4.419-39.108,19.405-53.517,7.109-6.737,10.183-17.4,22.48-19.648,16.908-2.994,24.785,1.123,26.9,17.776C90.464,211.656,90.272,216.146,90.464,220.451Z" transform="translate(10.424 96.18)" fill="#cce7ff"/>
    <path id="Path_217586" data-name="Path 217586" d="M289.32,159.765c-2.113,15.532-7.493,28.256-17.1,39.484-10.568,12.162-24.209,15.717-36.889,10.1-13.449-5.8-23.825-20.77-19.6-34.431,4.8-15.532,12.1-31.249,21.711-44.535,9.415-13.1,33.047-9.917,42.462,4.3C284.709,142.176,286.245,151.345,289.32,159.765Z" transform="translate(109.377 62.182)" fill="#cce7ff"/>
    <path id="Path_217587" data-name="Path 217587" d="M121.078,169.1c1.728-28.255,29.2-58.381,60.521-48.838,15.947,4.866,25.362,19.086,19.6,34.618a69.422,69.422,0,0,1-37.083,40.418C143.749,204.464,121.078,190.429,121.078,169.1Z" transform="translate(61.66 60.325)" fill="#cce7ff"/>
    <path id="Path_217588" data-name="Path 217588" d="M341.1,308.765c.193,22.268-19.021,43.974-41.692,47.155-12.3,1.683-23.634-5.24-25.938-17.029-3.266-16.092.192-30.688,13.832-40.979a111.15,111.15,0,0,1,27.091-14.783C328.991,277.7,340.9,289.866,341.1,308.765Z" transform="translate(138.682 143.525)" fill="#cce7ff"/>
    <path id="Path_217589" data-name="Path 217589" d="M341.537,79.652c-.192,18.525-16.715,35.179-36.121,36.863-18.253,1.5-29.781-10.292-26.13-27.507a217.373,217.373,0,0,1,10.568-32.746c4.034-9.917,28.434-13.286,37.849-3.93,7.109,6.923,11.144,17.028,16.523,25.636C343.459,78.529,342.5,79.091,341.537,79.652Z" transform="translate(141.886 23.841)" fill="#cce7ff"/>
    <path id="Path_217590" data-name="Path 217590" d="M328.579,35.2c1.345-5.239,2.115-11.415,4.419-17.028,5.38-12.724,20.366-20.77,31.317-17.4,19.983,5.988,29.2,18.151,24.017,35.179a62.774,62.774,0,0,1-14.409,24.887c-15.948,16.28-35.738,10.853-42.655-10.853C329.732,45.678,329.54,40.813,328.579,35.2Z" transform="translate(167.332 0)" fill="#cce7ff"/>
    <path id="Path_217591" data-name="Path 217591" d="M248.847,310.691c-3.268,17.963-9.223,32.559-20.942,44.535-6.725,7.11-15.372,10.477-25.362,7.672-9.8-2.807-12.874-11.227-13.642-19.46-1.73-19.648,4.036-37.612,21.134-48.652,6.917-4.3,19.021-4.3,27.283-1.871C242.507,294.6,245,304.515,248.847,310.691Z" transform="translate(96.05 148.334)" fill="#cce7ff"/>
    <path id="Path_217592" data-name="Path 217592" d="M167.026,363c0,23.952-14.026,40.979-35.16,44.348-14.987,2.433-24.978-5.24-25.17-20.022-.192-15.532,5.764-29,16.908-40.045,8.838-8.794,20.174-9.73,30.932-5.987C165.3,344.848,166.066,355.14,167.026,363Z" transform="translate(54.334 172.75)" fill="#cce7ff"/>
    <path id="Path_217593" data-name="Path 217593" d="M421.8,139.2c-.193,16.092-13.642,35.179-28.821,40.979-11.143,4.117-22.094-.187-30.549-11.789-6.917-9.73-7.685-21.519,1.921-28.442,12.681-8.982,27.283-15.719,41.885-21.332C414.688,115.432,421.8,126.1,421.8,139.2Z" transform="translate(181.9 60.116)" fill="#cce7ff"/>
    <path id="Path_217594" data-name="Path 217594" d="M236.924,258.366c0-20.022,11.528-35.928,26.322-35.928,12.874,0,28.244,17.215,28.051,31.624-.192,15.719-16.715,32.746-31.509,32.746C246.339,286.434,236.924,274.645,236.924,258.366Z" transform="translate(120.656 113.279)" fill="#cce7ff"/>
    <path id="Path_217595" data-name="Path 217595" d="M232.684,64.866c15.755.374,23.057,7.111,22.864,20.4-.577,18.9-19.4,40.044-34.968,39.108-12.681-.747-22.671-13.846-22.1-29.377C199.061,78.151,214.816,64.3,232.684,64.866Z" transform="translate(101.068 33.025)" fill="#cce7ff"/>
    <path id="Path_217596" data-name="Path 217596" d="M263.829,381.745c0,13.847-12.872,31.062-26.13,34.992-15.563,4.677-28.051-5.24-24.785-20.583,1.921-9.357,6.532-18.526,11.336-26.946s11.719-15.719,23.44-12.912C255.183,358.355,263.829,372.2,263.829,381.745Z" transform="translate(108.162 181.136)" fill="#cce7ff"/>
    <path id="Path_217597" data-name="Path 217597" d="M22.8,410.212c1.153-5.989,1.537-12.35,3.651-17.965,5.764-15.9,28.051-21.892,40.54-10.479,3.266,2.994,5.572,10.48,4.035,14.409-4.419,11.414-9.991,22.642-17.484,32.372-3.266,4.3-13.257,7.484-18.253,5.8-5-1.5-8.262-9.73-11.336-15.343-1.153-2.246-.192-5.614-.192-8.607A8.517,8.517,0,0,0,22.8,410.212Z" transform="translate(11.611 191.409)" fill="#cce7ff"/>
    <path id="Path_217598" data-name="Path 217598" d="M49.4,317.488c-3.074,5.987-8.262,18.15-15.371,29.378-4.227,6.549-12.1,7.484-18.637,2.059C6.936,342-2.479,335.077.6,321.978c2.882-12.537,9.8-21.706,23.824-24.139a14.893,14.893,0,0,0,3.074-1.121C42.288,290.355,49.781,295.033,49.4,317.488Z" transform="translate(0 149.779)" fill="#cce7ff"/>
    <path id="Path_217599" data-name="Path 217599" d="M207.009,36.186c0-14.221,10.183-25.449,23.055-25.636s25.362,9.169,25.362,19.274c.192,14.221-17.292,32-31.125,31.624C214.309,61.26,207.009,50.22,207.009,36.186Z" transform="translate(105.421 5.371)" fill="#cce7ff"/>
    <path id="Path_217600" data-name="Path 217600" d="M358.075,137.875c-.192,14.595-13.642,29.378-26.323,29a19,19,0,0,1-18.828-19.086c.192-12.912,16.138-29.191,28.628-29C351.735,118.789,358.075,126.273,358.075,137.875Z" transform="translate(159.358 60.493)" fill="#cce7ff"/>
    <path id="Path_217601" data-name="Path 217601" d="M177.859,65.384c-3.843,9.543-6.34,17.777-10.183,25.261-3.649,6.924-10.76,12.163-18.251,8.608-5.572-2.807-11.144-9.73-12.489-15.718-3.074-12.911,6.34-22.455,14.6-30.875,2.881-2.994,12.1-3.743,16.332-1.5C172.288,53.6,174.593,60.332,177.859,65.384Z" transform="translate(69.432 25.39)" fill="#cce7ff"/>
    <path id="Path_217602" data-name="Path 217602" d="M87.927,350.592c-14.794-.374-22.1-7.484-21.711-21.519.192-12.163,10.183-22.455,21.327-22.08,10.375.374,19.021,8.42,19.021,17.776C106.371,343.856,101.376,350.779,87.927,350.592Z" transform="translate(33.714 156.334)" fill="#cce7ff"/>
    <path id="Path_217603" data-name="Path 217603" d="M107.072,225.4c6.532-10.1,11.528-19.648,18.251-27.695,1.921-2.246,9.415-2.059,13.066-.374,14.985,6.924,16.715,25.449,3.651,35.366-2.114,1.5-3.651,4.117-5.957,4.866-5.764,1.683-12.681,4.677-17.292,2.993C114.372,238.874,111.874,231.764,107.072,225.4Z" transform="translate(54.527 99.838)" fill="#cce7ff"/>
    <path id="Path_217604" data-name="Path 217604" d="M371.3,68.447c11.528.187,19.021,6.923,18.829,17.028-.193,12.537-11.913,24.887-23.44,24.887-9.8,0-16.715-7.111-16.332-16.654C350.935,80.049,360.733,68.26,371.3,68.447Z" transform="translate(178.416 34.856)" fill="#cce7ff"/>
    <path id="Path_217605" data-name="Path 217605" d="M391.446,268.506c-1.345,5.987-1.73,13.66-5.187,19.648-2.5,4.3-9.415,8.607-14.219,8.42-3.843-.187-9.03-6.549-10.568-11.04a61.8,61.8,0,0,1-2.689-22.268c.385-8.42,5.38-14.595,14.987-14.033C382.608,249.982,391.638,259.525,391.446,268.506Z" transform="translate(182.666 126.906)" fill="#cce7ff"/>
    <path id="Path_217606" data-name="Path 217606" d="M180.4,228.717c-.192-12.162,7.11-21.519,17.1-21.893,8.647-.374,16.14,7.112,16.14,16.093,0,10.1-9.606,21.145-18.638,21.519C186.359,244.81,180.6,238.634,180.4,228.717Z" transform="translate(91.87 105.32)" fill="#cce7ff"/>
    <path id="Path_217607" data-name="Path 217607" d="M146.811,283.432c10.183,0,21.711,8.794,21.711,16.466,0,8.794-8.455,17.216-16.717,17.029-9.413-.187-18.636-9.919-18.636-19.649C133.169,289.232,138.741,283.432,146.811,283.432Z" transform="translate(67.818 144.341)" fill="#cce7ff"/>
    <path id="Path_217608" data-name="Path 217608" d="M160.881,425c-.577,8.982-11.721,18.525-20.751,17.589-8.647-.936-12.3-5.987-11.913-14.222.577-9.543,9.991-18.15,19.021-17.589C155.885,411.341,161.264,416.956,160.881,425Z" transform="translate(65.282 209.18)" fill="#cce7ff"/>
    <path id="Path_217609" data-name="Path 217609" d="M87.347,276.378c.769-10.853.961-19.46,12.3-18.712,9.222.749,12.1,7.484,11.912,15.345-.192,8.233-4.226,13.846-13.641,13.473C89.268,286.11,87.155,280.308,87.347,276.378Z" transform="translate(44.476 131.196)" fill="#cce7ff"/>
    <path id="Path_217610" data-name="Path 217610" d="M297.677,181.79c.193,8.607-5.571,15.156-13.064,14.783-8.07-.187-11.144-5.427-10.759-12.35.192-7.486,1.73-15.345,11.528-15.719C293.835,168.317,296.909,174.68,297.677,181.79Z" transform="translate(139.447 85.81)" fill="#cce7ff"/>
    <path id="Path_217611" data-name="Path 217611" d="M185.631,391.263c-4.994-7.11-9.8-10.853-10.183-14.97-.575-6.736,5.381-11.227,11.721-9.543,4.034,1.123,9.222,6.55,9.415,10.479C196.775,380.784,191.2,384.527,185.631,391.263Z" transform="translate(89.329 186.59)" fill="#cce7ff"/>
    <path id="Path_217612" data-name="Path 217612" d="M292.347,27.189c-2.689-4.3-7.3-8.42-7.685-12.911-.193-2.807,7.109-9.169,9.222-8.42,4.227,1.5,9.03,5.988,9.991,10.1.768,2.994-4.419,7.3-6.917,11.04C295.422,27,293.884,27.189,292.347,27.189Z" transform="translate(144.965 2.952)" fill="#cce7ff"/>
  </g>
</svg>
