<svg xmlns="http://www.w3.org/2000/svg" viewBox="0 0 1440 478" fill="none" id="backsplash1">
    <g style="mix-blend-mode:screen" filter="url(#filter0_bf_265_1137)">
        <path d="M1249.81 236.647C992.327 -250.375 -980.253 924.646 533.147 -202.815C678.098 -462.954 1144.5 -726.279 1814.8 -711.123C2485.09 -695.967 2910.96 -472.796 2766.01 -212.657C2473.52 -313.349 1920.1 251.803 1249.81 236.647Z" fill="url(#paint0_linear_265_1137)"/>
        <path d="M1249.81 236.647C992.327 -250.375 -980.253 924.646 533.147 -202.815C678.098 -462.954 1144.5 -726.279 1814.8 -711.123C2485.09 -695.967 2910.96 -472.796 2766.01 -212.657C2473.52 -313.349 1920.1 251.803 1249.81 236.647Z" fill="url(#paint1_radial_265_1137)"/>
    </g>
    <defs>
        <filter id="filter0_bf_265_1137" x="-205.472" y="-884.486" width="3172.53" height="1362.06" filterUnits="userSpaceOnUse" color-interpolation-filters="sRGB">
            <feFlood flood-opacity="0" result="BackgroundImageFix"/>
            <feGaussianBlur in="BackgroundImage" stdDeviation="55.5878"/>
            <feComposite in2="SourceAlpha" operator="in" result="effect1_backgroundBlur_265_1137"/>
            <feBlend mode="normal" in="SourceGraphic" in2="effect1_backgroundBlur_265_1137" result="shape"/>
            <feGaussianBlur stdDeviation="86.3694" result="effect2_foregroundBlur_265_1137"/>
        </filter>
        <linearGradient id="paint0_linear_265_1137" x1="2766.01" y1="-212.657" x2="890.416" y2="-1257.75" gradientUnits="userSpaceOnUse">
            <stop stop-color="white"/>
            <stop offset="0.0001" stop-opacity="0.864583"/>
            <stop offset="1" stop-color="white" stop-opacity="0"/>
        </linearGradient>
        <radialGradient id="paint1_radial_265_1137" cx="0" cy="0" r="1" gradientUnits="userSpaceOnUse" gradientTransform="translate(1552.34 -240.099) rotate(-178.705) scale(1310.39 514.702)">
            <stop offset="0.192708" stop-color="#3E56D3" stop-opacity="0.813008"/>
            <stop offset="0.53125" stop-color="#515B6A"/>
            <stop offset="1" stop-color="#2366B5"/>
        </radialGradient>
    </defs>
</svg>