
<svg xmlns="http://www.w3.org/2000/svg" viewBox="0 0 72 72" xml:space="preserve"><radialGradient id="a" cx="17.79" cy="4.59" r="66.902" gradientUnits="userSpaceOnUse"><stop offset="0" style="stop-color:#40cfff"/><stop offset="1" style="stop-color:#8a40ff"/></radialGradient><path fill-rule="evenodd" clip-rule="evenodd" fill="url(#a)" d="M40.9 37.8c-1 0 .2.6 1.5.8.4-.3.7-.6 1-.9-.8.2-1.7.2-2.5.1m5.5-1.4c.6-.8 1-1.8 1.2-2.8-.2.7-.5 1.3-.9 1.9-1.9 1.2-.2-.7 0-1.5-2 2.7-.2 1.6-.3 2.4m2.1-5.5c.1-1.9-.4-1.3-.5-.6.1.1.3 1.4.5.6M37 4.8c.4 0 .8.1 1.1.3.6-.1.7-.2-1.1-.3m1.1.3-.4.1.4-.1m17.1 26.5c.1 1.7-.5 2.5-1 4l-.9.5c-.7 1.4.1.9-.5 2.1-1.1 1-3.5 3.3-4.2 3.5-.5 0 .4-.7.5-.9-1.5 1.1-1.2 1.6-3.6 2.3l-.1-.2c-5.8 2.8-13.7-2.7-13.6-10.2 0 .2-.1.4-.3.6-.4-3.9 1.7-7.6 5.2-9.3 3.2-1.6 7.1-1.1 9.7 1.3-1.6-2.2-4.3-3.5-7.1-3.5-2.9.1-5.5 1.7-6.9 4.2-1.6 1-1.7 3.9-2.4 4.4-.9 6.9 1.7 9.9 6.2 13.4.7.5.2.6.3.9-1.5-.7-2.9-1.8-4-3.1.6.9 1.3 1.7 2.1 2.4-1.4-.5-3.3-3.5-3.8-3.6 2.4 4.4 9.8 7.8 13.7 6.1-2.1.2-4.1-.1-6.1-.7-.8-.4-2-1.4-1.8-1.5 5.3 2 10.7 1.5 15.3-2.2 1.2-.9 2.4-2.5 2.8-2.5-.6.8.1.4-.3 1.2 1.2-1.9-.5-.8 1.2-3.3l.6.9c-.2-1.6 1.9-3.5 1.7-6 .5-.8.6.8 0 2.6.7-2 .2-2.3.4-3.9.2.6.4 1.1.6 1.7-.5-1.9.5-3.2.7-4.3-.2-.1-.7.8-.8-1.4 0-1 .3-.5.4-.8-.5-.7-.9-1.4-1-2.3.2-.3.6.9.9.9-.2-.9-.4-1.9-.5-2.9-.9-1.8-.3.2-1-.8-.9-2.9.8-.7.9-2 1.2 2 2 4.3 2.5 6.6-.3-1.6-.7-3.2-1.3-4.7.4.2-.7-3.3.5-1-1.2-5.1-5.5-9.7-9.4-11.8.5.5 1.1 1 .9 1.1-2-1.2-1.6-1.3-1.9-1.8-1.6-.7-1.7.1-2.8 0-3-1.6-3.6-1.5-6.3-2.5l.1.6c-2-.7-2.3.3-4.5 0 .4-.3.9-.5 1.4-.5-1.9.3-1.8-.4-3.7.1.5-.3 1-.6 1.4-.8-1.6.1-3.7.9-3.1.2-2.6 1.2-7.1 2.8-9.7 5.3l-.1-.6c-1.2 1.4-5.1 4.3-5.4 6.2l-.3.1c-.6 1.1-1 2.2-1.5 3.3-.8 1.4-1.2.5-1.1.8-1.2 2.7-2.2 5.4-3 8.2.5.7 0 4.4.2 7.4-.8 14.6 10 28.7 21.7 32 1.7.6 4.3.6 6.5.7-2.6-.8-2.9-.4-5.4-1.3-1.8-.9-2.2-1.9-3.5-3l.5.9c-2.5-.9-1.5-1.1-3.5-1.8l.5-.7c-.8-.1-2.2-1.4-2.5-2.2h-.9c-1.1-1.4-1.6-2.3-1.6-3.1l-.2.5c-.3-.6-3.9-5.1-2.1-4-.5-.4-1-.9-1.3-1.5l.4-.4c-.8-.9-1.3-2-1.6-3.2.3.4.7.8 1.1.9-2.3-5.8-2.4-.3-4.1-5.9h.4c-.2-.4-.5-.9-.7-1.4l.2-1.6c-1.6-1.9-.5-8.3-.2-11.7.2-1.4 1.4-2.9 2.3-5.3l-.6-.1c1.1-1.9 6.1-7.7 8.4-7.4 1.1-1.4-.2 0-.4-.4 2.5-2.6 3.2-1.9 4.9-2.3 1.8-1.1-1.5.4-.7-.4 3.1-.8 2.2-1.8 6.3-2.3.4.2-1 .4-1.3.7 2.6-1.3 8.2-1 11.8.7 4.2 2 9 8 9.2 13.7l.2.1c-.1 2.2.3 4.8-.4 7.2l.4-1.2m-25.6 7.7-.1.7c.6 1 1.3 1.9 2.1 2.7-.7-1.2-1.1-1.7-2-3.4m1.6-.1c-.3-.4-.6-.9-.8-1.4.3.8.6 1.6 1.1 2.3l-.3-.9m28.4-6.3-.2.4c-.3 2.1-.9 4-1.8 5.9 1-2 1.7-4.1 2-6.3M37.2 4.3c.8-.1 1.6-.3 2.4-.3-1 .1-1.9.1-2.9.3h.5M12.7 17.7c.2 1.5-1.1 2.1.3 1.1.7-1.7-.3-.5-.3-1.1M11 24.8c.2-.7.4-1.5.5-2.2-.9 1.1-.4 1.4-.5 2.2"/></svg>