<svg xmlns="http://www.w3.org/2000/svg" width="77.76" height="70.976" viewBox="0 0 77.76 70.976"> <path id="www" d="M-61.5,78.878a35.34,35.34,0,0,1,13.481,3.3C-51.066,90.939-56,96.788-61.5,97.761Zm-16.714,3.3a35.289,35.289,0,0,1,13.477-3.3V97.761c-5.5-.976-10.436-6.822-13.481-15.582Zm-9.1,6.176a35.325,35.325,0,0,1,6.233-4.664,34.243,34.243,0,0,0,7.639,12.7,35.226,35.226,0,0,1-13.876-8.035Zm48.413,0A35.226,35.226,0,0,1-52.776,96.39a34.243,34.243,0,0,0,7.639-12.7A35.325,35.325,0,0,1-38.9,88.355Zm-5.213-7.848a58.858,58.858,0,0,0,1.554-6.894h13.236a35.548,35.548,0,0,1-7.27,12.423,38.868,38.868,0,0,0-7.529-5.529ZM-96.9,73.613h13.236a58.881,58.881,0,0,0,1.56,6.894,38.968,38.968,0,0,0-7.527,5.529A35.712,35.712,0,0,1-96.91,73.613Zm35.408,1.98v-1.98h15.655q-.5,2.826-1.207,5.41A38.552,38.552,0,0,0-61.5,75.593Zm-18.893-1.98H-64.73v1.98a38.566,38.566,0,0,0-14.449,3.43q-.717-2.582-1.219-5.41Zm-21.6,0V50.933h5.09a35.535,35.535,0,0,1,7.269-12.424,38.834,38.834,0,0,0,7.527,5.527,57.757,57.757,0,0,0-1.56,6.9h3.279c.331-1.885.738-3.692,1.207-5.41A38.624,38.624,0,0,0-64.73,48.954v1.983h3.237V48.954a38.624,38.624,0,0,0,14.448-3.427q.711,2.577,1.207,5.41h3.284a60.164,60.164,0,0,0-1.559-6.9,38.763,38.763,0,0,0,7.521-5.527,35.425,35.425,0,0,1,7.27,12.424h5.091v22.68Zm3.242-3.243h71.274v-16.2H-98.749Zm52.6-5.695-1.124,3.575-2.66-.023L-53.2,57.1l2.668-.785,1.98,6.743,1.082-3.427h2.655l1.076,3.427,1.981-6.743,2.668.785-3.269,11.125-2.66.023Zm-16.962,0-1.123,3.575-2.66-.023L-70.156,57.1l2.66-.785,1.981,6.743,1.082-3.427h2.653L-60.7,63.06l1.98-6.743,2.668.785-3.269,11.125-2.66.023Zm-16.96,0L-81.2,68.25l-2.66-.023L-87.123,57.1l2.667-.785,1.981,6.743,1.081-3.427h2.65l1.082,3.427,1.98-6.743,2.668.785-3.269,11.125-2.66.023ZM-61.5,26.785c5.5.972,10.432,6.82,13.481,15.58A35.365,35.365,0,0,1-61.5,45.671Zm-16.714,15.58c3.045-8.76,7.981-14.608,13.477-15.58V45.671a35.328,35.328,0,0,1-13.481-3.306Zm25.42-14.213a35.216,35.216,0,0,1,13.871,8.039,35.8,35.8,0,0,1-6.233,4.662,34.263,34.263,0,0,0-7.644-12.7Zm-34.521,8.039a35.213,35.213,0,0,1,13.872-8.039,34.243,34.243,0,0,0-7.639,12.7,35.817,35.817,0,0,1-6.237-4.66Z" transform="translate(101.991 -26.785)" fill="#457BFF"></path> </svg>