<svg xmlns="http://www.w3.org/2000/svg" width="40.907" height="40.906" viewBox="0 0 40.907 40.906">
  <path id="wp-loog" d="M2.907,20.452A17.549,17.549,0,0,0,12.8,36.244L4.426,13.312a17.479,17.479,0,0,0-1.519,7.141ZM32.3,19.567a9.238,9.238,0,0,0-1.447-4.839c-.889-1.445-1.723-2.669-1.723-4.115A3.038,3.038,0,0,1,32.074,7.5c.078,0,.152.01.227.014a17.542,17.542,0,0,0-26.508,3.3c.412.012.8.021,1.129.021,1.835,0,4.676-.223,4.676-.223a.725.725,0,0,1,.113,1.445s-.951.112-2.008.167l6.389,19.005,3.84-11.516L17.2,12.226c-.945-.055-1.84-.167-1.84-.167a.725.725,0,0,1,.111-1.445s2.9.223,4.622.223c1.835,0,4.676-.223,4.676-.223a.725.725,0,0,1,.113,1.445s-.953.112-2.008.167l6.341,18.861,1.75-5.848A21.2,21.2,0,0,0,32.3,19.567Zm-11.537,2.42L15.5,37.284A17.553,17.553,0,0,0,26.28,37a1.524,1.524,0,0,1-.125-.242L20.761,21.987Zm15.088-9.953a13.476,13.476,0,0,1,.118,1.8,16.554,16.554,0,0,1-1.334,6.285l-5.36,15.5a17.549,17.549,0,0,0,6.575-23.585ZM20.453,0A20.453,20.453,0,1,0,40.907,20.452,20.476,20.476,0,0,0,20.453,0Zm0,39.968A19.515,19.515,0,1,1,39.967,20.452,19.538,19.538,0,0,1,20.453,39.968Z" fill="#464342"/>
</svg>
