<svg xmlns="http://www.w3.org/2000/svg" xmlns:xlink="http://www.w3.org/1999/xlink" width="650" viewBox="0 0 487.5 159.750002" height="213" preserveAspectRatio="xMidYMid meet"><defs><g></g><clipPath id="2f9155b170"><path d="M 5 51 L 126 51 L 126 120 L 5 120 Z M 5 51 " clip-rule="nonzero"></path></clipPath><clipPath id="72a024efda"><path d="M 5.371094 73.734375 L 39.710938 29.867188 L 125.25 96.824219 L 90.914062 140.691406 Z M 5.371094 73.734375 " clip-rule="nonzero"></path></clipPath><clipPath id="df05ab0b44"><path d="M 23.082031 51.109375 L 5.371094 73.734375 L 107.367188 119.613281 L 125.074219 96.988281 L 23.082031 51.109375 " clip-rule="nonzero"></path></clipPath><clipPath id="299a3b6c0a"><path d="M 94.03125 97.433594 L 125.011719 97.433594 L 125.011719 154.632812 L 94.03125 154.632812 Z M 94.03125 97.433594 " clip-rule="nonzero"></path></clipPath><clipPath id="cbcd537f57"><path d="M 5 81.144531 L 36.289062 81.144531 L 36.289062 138 L 5 138 Z M 5 81.144531 " clip-rule="nonzero"></path></clipPath><clipPath id="df20e78d88"><path d="M 36.289062 99.390625 L 36.289062 137.621094 L 5.308594 119.375 L 5.308594 81.144531 L 36.289062 99.390625 " clip-rule="nonzero"></path></clipPath><clipPath id="7768e9f792"><path d="M 5.308594 110.9375 L 36.289062 110.9375 L 36.289062 154.632812 L 5.308594 154.632812 Z M 5.308594 110.9375 " clip-rule="nonzero"></path></clipPath><clipPath id="89e9e92a48"><path d="M 94 10.773438 L 125.074219 10.773438 L 125.074219 67.789062 L 94 67.789062 Z M 94 10.773438 " clip-rule="nonzero"></path></clipPath><clipPath id="3f1b5f72a8"><path d="M 125.074219 29.015625 L 125.074219 67.25 L 94.09375 49.003906 L 94.09375 10.773438 L 125.074219 29.015625 " clip-rule="nonzero"></path></clipPath><clipPath id="93a35ba46c"><path d="M 94.09375 32.25 L 125 32.25 L 125 89.265625 L 94.09375 89.265625 Z M 94.09375 32.25 " clip-rule="nonzero"></path></clipPath><clipPath id="d9816b16a1"><path d="M 94.09375 71.019531 L 94.09375 32.785156 L 125.074219 51.03125 L 125.074219 89.265625 L 94.09375 71.019531 " clip-rule="nonzero"></path></clipPath><clipPath id="01e8eeddd3"><path d="M 5 5.027344 L 36.351562 5.027344 L 36.351562 62 L 5 62 Z M 5 5.027344 " clip-rule="nonzero"></path></clipPath><clipPath id="8d680b8613"><path d="M 36.351562 23.269531 L 36.351562 61.503906 L 5.371094 43.257812 L 5.371094 5.027344 L 36.351562 23.269531 " clip-rule="nonzero"></path></clipPath><clipPath id="8523747257"><path d="M 5.371094 29.550781 L 36.351562 29.550781 L 36.351562 72.996094 L 5.371094 72.996094 Z M 5.371094 29.550781 " clip-rule="nonzero"></path></clipPath><clipPath id="f79ce3df44"><path d="M 217 90 L 297 90 L 297 153.203125 L 217 153.203125 Z M 217 90 " clip-rule="nonzero"></path></clipPath><clipPath id="e858baa41e"><path d="M 140 72.996094 L 220 72.996094 L 220 136 L 140 136 Z M 140 72.996094 " clip-rule="nonzero"></path></clipPath><clipPath id="801c1d7d50"><path d="M 136 72.996094 L 300 72.996094 L 300 153.203125 L 136 153.203125 Z M 136 72.996094 " clip-rule="nonzero"></path></clipPath></defs><g clip-path="url(#2f9155b170)"><g clip-path="url(#72a024efda)"><g clip-path="url(#df05ab0b44)"><path fill="#000046" d="M 5.371094 73.734375 L 39.710938 29.867188 L 125.25 96.824219 L 90.914062 140.691406 Z M 5.371094 73.734375 " fill-opacity="1" fill-rule="nonzero"></path></g></g></g><g clip-path="url(#299a3b6c0a)"><path fill="#000046" d="M 125.011719 154.632812 L 94.222656 154.632812 L 94.222656 97.617188 L 125.011719 97.617188 Z M 125.011719 154.632812 " fill-opacity="1" fill-rule="nonzero"></path></g><g clip-path="url(#cbcd537f57)"><g clip-path="url(#df20e78d88)"><path fill="#000046" d="M 36.289062 81.144531 L 36.289062 137.589844 L 5.5 137.589844 L 5.5 81.144531 Z M 36.289062 81.144531 " fill-opacity="1" fill-rule="nonzero"></path></g></g><g clip-path="url(#7768e9f792)"><path fill="#000046" d="M 36.289062 154.632812 L 5.5 154.632812 L 5.5 110.730469 L 36.289062 110.730469 Z M 36.289062 154.632812 " fill-opacity="1" fill-rule="nonzero"></path></g><g clip-path="url(#89e9e92a48)"><g clip-path="url(#3f1b5f72a8)"><path fill="#000046" d="M 125.074219 10.773438 L 125.074219 67.21875 L 94.285156 67.21875 L 94.285156 10.773438 Z M 125.074219 10.773438 " fill-opacity="1" fill-rule="nonzero"></path></g></g><g clip-path="url(#93a35ba46c)"><g clip-path="url(#d9816b16a1)"><path fill="#000046" d="M 94.09375 89.265625 L 94.09375 32.820312 L 124.882812 32.820312 L 124.882812 89.265625 Z M 94.09375 89.265625 " fill-opacity="1" fill-rule="nonzero"></path></g></g><g clip-path="url(#01e8eeddd3)"><g clip-path="url(#8d680b8613)"><path fill="#000046" d="M 36.351562 5.027344 L 36.351562 61.472656 L 5.5625 61.472656 L 5.5625 5.027344 Z M 36.351562 5.027344 " fill-opacity="1" fill-rule="nonzero"></path></g></g><g clip-path="url(#8523747257)"><path fill="#000046" d="M 36.351562 72.996094 L 5.5625 72.996094 L 5.5625 29.664062 L 36.351562 29.664062 Z M 36.351562 72.996094 " fill-opacity="1" fill-rule="nonzero"></path></g><path fill="#000046" d="M 284.890625 142.679688 C 282.195312 144.960938 279.335938 146.839844 276.230469 148.390625 C 271.082031 150.835938 265.363281 152.144531 259.398438 152.144531 C 248.9375 152.144531 239.132812 148.0625 231.777344 140.71875 L 218.132812 127.09375 L 232.1875 113.058594 L 237.578125 118.445312 L 245.75 126.605469 C 249.347656 130.195312 254.167969 132.234375 259.316406 132.234375 C 264.464844 132.234375 269.285156 130.277344 272.878906 126.605469 C 280.398438 119.097656 280.398438 106.941406 272.878906 99.515625 C 269.285156 95.925781 264.464844 93.886719 259.316406 93.886719 C 256.621094 93.886719 253.921875 94.457031 251.554688 95.515625 C 255.882812 92.90625 260.949219 91.4375 266.34375 91.4375 C 282.277344 91.4375 295.269531 104.328125 295.269531 120.320312 C 295.269531 128.398438 292 135.660156 286.609375 140.882812 C 283.992188 143.414062 282.605469 144.472656 284.890625 142.679688 Z M 284.890625 142.679688 " fill-opacity="1" fill-rule="nonzero"></path><g clip-path="url(#f79ce3df44)"><path fill="#000046" d="M 259.398438 153.203125 C 248.691406 153.203125 238.558594 149.042969 231.042969 141.453125 L 217.394531 127.910156 C 217.234375 127.746094 217.070312 127.421875 217.070312 127.175781 C 217.070312 126.929688 217.152344 126.605469 217.394531 126.441406 L 231.449219 112.40625 C 231.859375 112 232.511719 112 232.921875 112.40625 L 246.488281 125.953125 C 249.917969 129.378906 254.496094 131.253906 259.316406 131.253906 C 264.136719 131.253906 268.714844 129.378906 272.144531 125.953125 C 279.253906 118.851562 279.253906 107.429688 272.144531 100.332031 C 268.714844 96.902344 264.136719 95.027344 259.316406 95.027344 C 256.78125 95.027344 254.332031 95.515625 251.960938 96.578125 C 251.472656 96.824219 250.898438 96.578125 250.574219 96.089844 C 250.328125 95.597656 250.492188 95.027344 250.980469 94.699219 C 255.636719 91.925781 260.949219 90.457031 266.34375 90.457031 C 282.851562 90.457031 296.25 103.839844 296.25 120.320312 C 296.25 128.398438 293.0625 135.988281 287.34375 141.617188 C 286.609375 142.269531 286.117188 142.839844 285.628906 143.25 C 285.546875 143.332031 285.546875 143.414062 285.464844 143.414062 C 285.300781 143.492188 285.21875 143.65625 285.054688 143.738281 C 284.730469 144.066406 284.484375 144.226562 284.320312 144.390625 C 281.949219 146.269531 279.335938 147.898438 276.558594 149.207031 C 271.246094 151.816406 265.445312 153.203125 259.398438 153.203125 Z M 219.683594 127.09375 L 232.511719 139.902344 C 239.703125 147.085938 249.265625 151 259.398438 151 C 265.117188 151 270.59375 149.777344 275.742188 147.328125 C 278.355469 146.023438 280.886719 144.472656 283.175781 142.597656 C 283.503906 142.351562 284.566406 141.371094 285.953125 139.984375 C 291.347656 134.683594 294.289062 127.664062 294.289062 120.160156 C 294.289062 104.820312 281.789062 92.335938 266.425781 92.335938 C 264.707031 92.335938 263.074219 92.496094 261.359375 92.824219 C 266.015625 93.3125 270.347656 95.273438 273.699219 98.617188 C 281.625 106.53125 281.625 119.34375 273.699219 127.175781 C 269.855469 131.011719 264.789062 133.132812 259.398438 133.132812 C 254.003906 133.132812 248.9375 131.011719 245.097656 127.175781 L 232.269531 114.363281 Z M 219.683594 127.09375 " fill-opacity="1" fill-rule="nonzero"></path></g><path fill="#000046" d="M 151.453125 83.523438 C 154.148438 81.238281 157.007812 79.359375 160.113281 77.8125 C 165.261719 75.363281 170.980469 74.058594 176.949219 74.058594 C 187.40625 74.058594 197.210938 78.136719 204.566406 85.480469 L 218.132812 99.027344 L 204.078125 113.058594 L 198.683594 107.675781 L 190.511719 99.515625 C 186.917969 95.925781 182.09375 93.886719 176.949219 93.886719 C 171.800781 93.886719 166.976562 95.84375 163.382812 99.515625 C 155.863281 107.023438 155.863281 119.179688 163.382812 126.605469 C 166.976562 130.195312 171.800781 132.234375 176.949219 132.234375 C 179.644531 132.234375 182.339844 131.664062 184.710938 130.601562 C 180.378906 133.214844 175.3125 134.683594 169.917969 134.683594 C 153.984375 134.683594 140.992188 121.789062 140.992188 105.878906 C 140.992188 97.800781 144.261719 90.539062 149.65625 85.316406 C 152.269531 82.707031 153.660156 81.726562 151.453125 83.523438 Z M 151.453125 83.523438 " fill-opacity="1" fill-rule="nonzero"></path><g clip-path="url(#e858baa41e)"><path fill="#000046" d="M 169.917969 135.742188 C 153.414062 135.742188 140.011719 122.359375 140.011719 105.878906 C 140.011719 97.800781 143.199219 90.214844 148.917969 84.582031 C 149.65625 83.929688 150.144531 83.359375 150.636719 82.953125 C 150.71875 82.871094 150.71875 82.789062 150.796875 82.789062 C 150.960938 82.707031 151.042969 82.542969 151.207031 82.460938 C 151.535156 82.136719 151.777344 81.972656 151.941406 81.808594 C 154.3125 79.933594 156.925781 78.300781 159.707031 76.996094 C 165.097656 74.300781 170.902344 72.996094 176.949219 72.996094 C 187.652344 72.996094 197.785156 77.160156 205.300781 84.746094 L 218.867188 98.292969 C 219.03125 98.453125 219.195312 98.78125 219.195312 99.027344 C 219.195312 99.269531 219.113281 99.597656 218.867188 99.757812 L 204.8125 113.792969 C 204.402344 114.203125 203.75 114.203125 203.339844 113.792969 L 189.777344 100.25 C 186.34375 96.824219 181.769531 94.945312 176.949219 94.945312 C 172.125 94.945312 167.550781 96.824219 164.117188 100.25 C 157.007812 107.347656 157.007812 118.769531 164.117188 125.871094 C 167.550781 129.296875 172.125 131.171875 176.949219 131.171875 C 179.480469 131.171875 181.933594 130.683594 184.300781 129.625 C 184.792969 129.378906 185.363281 129.625 185.691406 130.113281 C 185.9375 130.601562 185.773438 131.171875 185.28125 131.5 C 180.625 134.273438 175.3125 135.742188 169.917969 135.742188 Z M 153.167969 83.441406 C 152.839844 83.6875 151.777344 84.664062 150.390625 85.96875 C 144.996094 91.273438 142.054688 98.371094 142.054688 105.878906 C 142.054688 121.21875 154.558594 133.703125 169.917969 133.703125 C 171.636719 133.703125 173.269531 133.539062 174.984375 133.214844 C 170.328125 132.722656 165.996094 130.765625 162.648438 127.421875 C 154.722656 119.503906 154.722656 106.695312 162.648438 98.863281 C 166.488281 95.027344 171.554688 92.90625 176.949219 92.90625 C 182.339844 92.90625 187.40625 95.027344 191.246094 98.863281 L 204.078125 111.671875 L 216.660156 99.105469 L 203.832031 86.214844 C 196.640625 79.035156 187.078125 75.117188 176.949219 75.117188 C 171.226562 75.117188 165.753906 76.34375 160.605469 78.789062 C 157.988281 80.015625 155.457031 81.644531 153.167969 83.441406 Z M 153.167969 83.441406 " fill-opacity="1" fill-rule="nonzero"></path></g><path fill="#ffffff" d="M 287.015625 85.480469 C 279.664062 78.136719 269.855469 74.058594 259.398438 74.058594 C 248.9375 74.058594 239.132812 78.136719 231.777344 85.480469 L 190.511719 126.605469 C 188.796875 128.316406 186.835938 129.625 184.710938 130.601562 C 180.378906 133.214844 175.3125 134.683594 169.917969 134.683594 C 153.984375 134.683594 140.992188 121.789062 140.992188 105.878906 C 140.992188 97.964844 144.097656 90.703125 149.246094 85.480469 C 133.964844 100.738281 133.964844 125.460938 149.246094 140.71875 C 156.601562 148.0625 166.40625 152.144531 176.867188 152.144531 C 187.324219 152.144531 197.132812 148.0625 204.484375 140.71875 L 245.667969 99.597656 C 247.386719 97.882812 249.347656 96.578125 251.472656 95.597656 C 255.800781 92.988281 260.867188 91.519531 266.261719 91.519531 C 282.195312 91.519531 295.1875 104.410156 295.1875 120.402344 C 295.1875 128.316406 292.082031 135.578125 286.933594 140.800781 C 302.296875 125.460938 302.296875 100.738281 287.015625 85.480469 Z M 287.015625 85.480469 " fill-opacity="1" fill-rule="nonzero"></path><g clip-path="url(#801c1d7d50)"><path fill="#000046" d="M 176.949219 153.203125 C 166.242188 153.203125 156.109375 149.042969 148.59375 141.453125 C 140.992188 133.867188 136.824219 123.828125 136.824219 113.058594 C 136.824219 102.371094 140.992188 92.335938 148.59375 84.746094 C 149 84.339844 149.65625 84.339844 150.0625 84.746094 C 150.472656 85.15625 150.472656 85.808594 150.0625 86.214844 C 144.914062 91.4375 142.054688 98.371094 142.054688 105.878906 C 142.054688 121.21875 154.558594 133.703125 169.917969 133.703125 C 174.90625 133.703125 179.890625 132.316406 184.21875 129.703125 C 186.425781 128.726562 188.222656 127.5 189.777344 125.871094 L 230.960938 84.746094 C 238.558594 77.160156 248.609375 72.996094 259.398438 72.996094 C 270.101562 72.996094 280.234375 77.160156 287.753906 84.746094 C 295.351562 92.335938 299.519531 102.371094 299.519531 113.058594 C 299.519531 123.75 295.351562 133.867188 287.753906 141.371094 C 287.34375 141.78125 286.691406 141.78125 286.28125 141.371094 C 285.875 140.964844 285.875 140.3125 286.28125 139.902344 C 291.429688 134.683594 294.289062 127.746094 294.289062 120.238281 C 294.289062 104.898438 281.789062 92.417969 266.425781 92.417969 C 261.441406 92.417969 256.457031 93.804688 252.125 96.414062 C 249.917969 97.394531 248.121094 98.617188 246.566406 100.25 L 205.300781 141.453125 C 197.785156 148.960938 187.652344 153.203125 176.949219 153.203125 Z M 140.011719 103.839844 C 139.277344 106.859375 138.949219 109.957031 138.949219 113.058594 C 138.949219 123.257812 142.871094 132.722656 150.0625 139.902344 C 157.253906 147.085938 166.816406 151 176.949219 151 C 187.078125 151 196.640625 147.085938 203.832031 139.902344 L 245.015625 98.78125 C 246.730469 97.066406 248.855469 95.597656 251.144531 94.621094 C 255.71875 91.925781 261.03125 90.375 266.34375 90.375 C 282.851562 90.375 296.25 103.757812 296.25 120.238281 C 296.25 120.890625 296.25 121.546875 296.167969 122.28125 C 296.90625 119.261719 297.3125 116.242188 297.3125 113.058594 C 297.3125 102.859375 293.390625 93.394531 286.199219 86.214844 C 279.089844 79.035156 269.53125 75.117188 259.398438 75.117188 C 249.265625 75.117188 239.703125 79.035156 232.511719 86.214844 L 191.246094 127.339844 C 189.53125 129.050781 187.40625 130.519531 185.117188 131.5 C 180.542969 134.191406 175.230469 135.742188 169.917969 135.742188 C 153.414062 135.742188 140.011719 122.359375 140.011719 105.878906 C 140.011719 105.144531 140.011719 104.492188 140.011719 103.839844 Z M 140.011719 103.839844 " fill-opacity="1" fill-rule="nonzero"></path></g><g fill="#000046" fill-opacity="1"><g transform="translate(311.60425, 132.626817)"><g><path d="M 48.5 -36.78125 L 35.4375 -35.96875 C 35.082031 -37.625 34.175781 -39.039062 32.71875 -40.21875 C 31.269531 -41.40625 29.304688 -42 26.828125 -42 C 24.617188 -42 22.75 -41.535156 21.21875 -40.609375 C 19.6875 -39.679688 18.929688 -38.445312 18.953125 -36.90625 C 18.929688 -35.6875 19.414062 -34.648438 20.40625 -33.796875 C 21.40625 -32.953125 23.097656 -32.269531 25.484375 -31.75 L 34.796875 -29.875 C 44.691406 -27.84375 49.648438 -23.195312 49.671875 -15.9375 C 49.671875 -12.570312 48.679688 -9.613281 46.703125 -7.0625 C 44.734375 -4.519531 42.03125 -2.539062 38.59375 -1.125 C 35.15625 0.289062 31.210938 1 26.765625 1 C 19.953125 1 14.523438 -0.421875 10.484375 -3.265625 C 6.441406 -6.109375 4.085938 -9.988281 3.421875 -14.90625 L 17.453125 -15.640625 C 17.898438 -13.546875 18.929688 -11.960938 20.546875 -10.890625 C 22.171875 -9.816406 24.253906 -9.28125 26.796875 -9.28125 C 29.296875 -9.28125 31.3125 -9.769531 32.84375 -10.75 C 34.375 -11.726562 35.148438 -12.976562 35.171875 -14.5 C 35.109375 -17.050781 32.910156 -18.757812 28.578125 -19.625 L 19.65625 -21.40625 C 9.695312 -23.394531 4.742188 -28.296875 4.796875 -36.109375 C 4.765625 -41.066406 6.742188 -44.972656 10.734375 -47.828125 C 14.722656 -50.691406 20.007812 -52.125 26.59375 -52.125 C 33.09375 -52.125 38.210938 -50.75 41.953125 -48 C 45.691406 -45.25 47.875 -41.507812 48.5 -36.78125 Z M 48.5 -36.78125 "></path></g></g></g><g fill="#000046" fill-opacity="1"><g transform="translate(364.599957, 132.626817)"><g><path d="M 33.0625 -51.453125 L 33.0625 -40.734375 L 23.375 -40.734375 L 23.375 -15.8125 C 23.375 -13.84375 23.820312 -12.507812 24.71875 -11.8125 C 25.613281 -11.125 26.773438 -10.78125 28.203125 -10.78125 C 28.867188 -10.78125 29.535156 -10.84375 30.203125 -10.96875 C 30.878906 -11.09375 31.394531 -11.1875 31.75 -11.25 L 34 -0.640625 C 33.28125 -0.410156 32.273438 -0.144531 30.984375 0.15625 C 29.691406 0.457031 28.117188 0.640625 26.265625 0.703125 C 21.078125 0.921875 16.914062 -0.195312 13.78125 -2.65625 C 10.644531 -5.125 9.085938 -8.882812 9.109375 -13.9375 L 9.109375 -40.734375 L 2.078125 -40.734375 L 2.078125 -51.453125 L 9.109375 -51.453125 L 9.109375 -63.78125 L 23.375 -63.78125 L 23.375 -51.453125 Z M 33.0625 -51.453125 "></path></g></g></g><g fill="#000046" fill-opacity="1"><g transform="translate(401.248052, 132.626817)"><g><path d="M 19.96875 -68.609375 L 19.96875 0 L 5.6875 0 L 5.6875 -68.609375 Z M 19.96875 -68.609375 "></path></g></g></g><g fill="#000046" fill-opacity="1"><g transform="translate(426.908436, 132.626817)"><g><path d="M 14 20.03125 C 11.96875 20.03125 10.226562 19.859375 8.78125 19.515625 C 7.34375 19.171875 6.222656 18.816406 5.421875 18.453125 L 8.640625 7.40625 C 11.160156 8.164062 13.285156 8.363281 15.015625 8 C 16.753906 7.644531 18.125 6.296875 19.125 3.953125 L 20.0625 1.46875 L 1.609375 -51.453125 L 16.609375 -51.453125 L 27.265625 -13.671875 L 27.796875 -13.671875 L 38.5625 -51.453125 L 53.65625 -51.453125 L 33.5625 5.890625 C 32.113281 10.003906 29.796875 13.390625 26.609375 16.046875 C 23.429688 18.703125 19.226562 20.03125 14 20.03125 Z M 14 20.03125 "></path></g></g></g></svg>