<svg xmlns="http://www.w3.org/2000/svg" width="61.179" height="61.182"  viewBox="0 0 61.179 61.182"> <path id="Path_220714" data-name="Path 220714" d="M14647.6,21272.98a1.02,1.02,0,0,1-.395-1l1.345-7.576-5.712-5.365a1.017,1.017,0,0,1-.272-1.053,1.032,1.032,0,0,1,.827-.705l7.929-1.109,3.539-6.908a1.06,1.06,0,0,1,1.815,0l3.54,6.908,7.928,1.109a1.048,1.048,0,0,1,.839.705,1.022,1.022,0,0,1-.278,1.053l-5.712,5.365,1.345,7.576a1.012,1.012,0,0,1-1,1.2.971.971,0,0,1-.46-.107l-7.1-3.6-7.105,3.6a1,1,0,0,1-.459.111A1.027,1.027,0,0,1,14647.6,21272.98Zm8.628-5.562,5.739,2.908-1.084-6.107a1.018,1.018,0,0,1,.3-.918l4.564-4.293-6.348-.885a1.03,1.03,0,0,1-.764-.545l-2.872-5.611-2.873,5.611a1.038,1.038,0,0,1-.769.545l-6.343.885,4.565,4.293a1,1,0,0,1,.3.918l-1.083,6.107,5.739-2.908a.986.986,0,0,1,.918,0Zm-43.528,4.74a4.707,4.707,0,0,1-4.7-4.7v-12.014a4.572,4.572,0,0,1,.854-2.658h40.768l-.3.582-12.68,1.777a1.02,1.02,0,0,0-.556,1.752l9.162,8.611-1.186,6.652Zm1.421-10.711a4.588,4.588,0,1,0,4.586-4.586A4.593,4.593,0,0,0,14614.118,21261.447Zm46.752-10.7-4.2-8.2a1.065,1.065,0,0,0-1.815,0l-4.19,8.2h-41.814a4.586,4.586,0,0,1-.854-2.658v-12.02a4.6,4.6,0,0,1,.854-2.658h59.47a4.586,4.586,0,0,1,.854,2.658v12.02a4.586,4.586,0,0,1-.854,2.658Zm-46.752-8.666a4.588,4.588,0,1,0,4.586-4.59A4.592,4.592,0,0,0,14614.118,21242.078Zm43.843-1.531a1.02,1.02,0,1,0,1.02-1.02A1.019,1.019,0,0,0,14657.961,21240.547Zm-4.079,0a1.02,1.02,0,1,0,1.02-1.02A1.02,1.02,0,0,0,14653.882,21240.547Zm-4.079,0a1.02,1.02,0,1,0,1.02-1.02A1.023,1.023,0,0,0,14649.8,21240.547Zm-4.079,0a1.02,1.02,0,1,0,1.02-1.02A1.023,1.023,0,0,0,14645.724,21240.547Zm-4.079,0a1.02,1.02,0,1,0,1.021-1.02A1.024,1.024,0,0,0,14641.645,21240.547Zm-32.791-9.178a4.574,4.574,0,0,1-.854-2.654V21216.7a4.7,4.7,0,0,1,4.7-4.7h51.782a4.7,4.7,0,0,1,4.692,4.7v12.018a4.611,4.611,0,0,1-.849,2.654Zm5.265-8.666a4.588,4.588,0,1,0,4.586-4.586A4.593,4.593,0,0,0,14614.118,21222.7Zm45.882,1.533a1.02,1.02,0,1,0,1.02-1.02A1.02,1.02,0,0,0,14660,21224.236Zm-4.079,0a1.02,1.02,0,1,0,1.02-1.02A1.023,1.023,0,0,0,14655.921,21224.236Zm-4.079,0a1.02,1.02,0,1,0,1.021-1.02A1.024,1.024,0,0,0,14651.842,21224.236Zm-4.078,0a1.02,1.02,0,1,0,1.02-1.02A1.023,1.023,0,0,0,14647.764,21224.236Zm-4.079,0a1.02,1.02,0,1,0,1.02-1.02A1.023,1.023,0,0,0,14643.685,21224.236Zm14.276-3.059a1.02,1.02,0,1,0,1.02-1.02A1.019,1.019,0,0,0,14657.961,21221.178Zm-4.079,0a1.02,1.02,0,1,0,1.02-1.02A1.023,1.023,0,0,0,14653.882,21221.178Zm-4.079,0a1.02,1.02,0,1,0,1.02-1.02A1.023,1.023,0,0,0,14649.8,21221.178Zm-4.079,0a1.02,1.02,0,1,0,1.02-1.02A1.023,1.023,0,0,0,14645.724,21221.178Zm-4.079,0a1.02,1.02,0,1,0,1.021-1.02A1.024,1.024,0,0,0,14641.645,21221.178Z" transform="translate(-14607.999 -21212)" fill="#fff"></path> </svg>