<svg xmlns="http://www.w3.org/2000/svg" width="58.453" height="71.441" viewBox="0 0 58.453 71.441"> <path id="Path_220713" data-name="Path 220713" d="M29.226,71.441h0L8.671,57.737a19.794,19.794,0,0,1-6.365-7.013A19.394,19.394,0,0,1,0,41.535V9.093A3.168,3.168,0,0,1,.715,7.079,3.2,3.2,0,0,1,2.534,5.943L29.226,0,55.92,5.943a3.251,3.251,0,0,1,2.534,3.15V41.535a19.406,19.406,0,0,1-2.306,9.189,19.814,19.814,0,0,1-6.365,7.013L29.227,71.44Zm-11.7-41.278-2.559,2.578L26.5,44.281,45.756,25.028l-2.577-2.559L26.5,39.145l-8.981-8.982Z" style="fill:white!important;"></path> </svg>